# xmcd CD database file
#
# Track frame offsets:
#	150
#	13622
#	31150
#
# Disc length: 718 seconds
#
# Revision: 0
# Processed by: cddbd v1.5.1PL0 Copyright (c) Steve Scherf et al.
# Submitted via: CDex 1.51
#
DISCID=1602cc03
DTITLE=Madeth grey'll - 十字架の結末…
DYEAR=1900
DGENRE=Rock
TTITLE0=パラサイト
TTITLE1=廃人狂い人形
TTITLE2=missantroop
EXTD=
EXTT0=
EXTT1=
EXTT2=
PLAYORDER=
